<mxfile host="app.diagrams.net" modified="2022-09-30T08:53:26.554Z" agent="5.0 (Macintosh; Intel Mac OS X 10_15_7) AppleWebKit/537.36 (KHTML, like Gecko) Chrome/105.0.0.0 Safari/537.36" etag="zUvi9JL662t4d1m0ACl4" version="20.3.7" type="github">
  <diagram id="ilXa1vaEQAaimMjIyy_I" name="Page-1">
    <mxGraphModel dx="1735" dy="573" grid="1" gridSize="10" guides="1" tooltips="1" connect="1" arrows="1" fold="1" page="1" pageScale="1" pageWidth="850" pageHeight="1100" math="0" shadow="0">
      <root>
        <mxCell id="0" />
        <mxCell id="1" parent="0" />
        <mxCell id="8_nAU7fzenCUrAZ5edRp-3" value="&lt;font style=&quot;font-size: 14px;&quot;&gt;user&lt;/font&gt;" style="shape=umlActor;verticalLabelPosition=bottom;verticalAlign=top;html=1;outlineConnect=0;fontSize=24;" vertex="1" parent="1">
          <mxGeometry x="-290" y="340" width="30" height="60" as="geometry" />
        </mxCell>
        <mxCell id="8_nAU7fzenCUrAZ5edRp-4" value="miner" style="shape=umlActor;verticalLabelPosition=bottom;verticalAlign=top;html=1;outlineConnect=0;fontSize=14;fillColor=#d5e8d4;strokeColor=#82b366;" vertex="1" parent="1">
          <mxGeometry x="-170" y="280" width="30" height="60" as="geometry" />
        </mxCell>
        <mxCell id="8_nAU7fzenCUrAZ5edRp-6" value="miner" style="shape=umlActor;verticalLabelPosition=bottom;verticalAlign=top;html=1;outlineConnect=0;fontSize=14;fillColor=#d5e8d4;strokeColor=#82b366;" vertex="1" parent="1">
          <mxGeometry x="-50" y="380" width="30" height="60" as="geometry" />
        </mxCell>
        <mxCell id="8_nAU7fzenCUrAZ5edRp-7" value="miner" style="shape=umlActor;verticalLabelPosition=bottom;verticalAlign=top;html=1;outlineConnect=0;fontSize=14;fillColor=#d5e8d4;strokeColor=#82b366;" vertex="1" parent="1">
          <mxGeometry x="-50" y="195" width="30" height="60" as="geometry" />
        </mxCell>
        <mxCell id="8_nAU7fzenCUrAZ5edRp-8" value="miner" style="shape=umlActor;verticalLabelPosition=bottom;verticalAlign=top;html=1;outlineConnect=0;fontSize=14;fillColor=#d5e8d4;strokeColor=#82b366;" vertex="1" parent="1">
          <mxGeometry x="-50" y="290" width="30" height="60" as="geometry" />
        </mxCell>
        <mxCell id="8_nAU7fzenCUrAZ5edRp-9" value="" style="shape=umlActor;verticalLabelPosition=bottom;verticalAlign=top;html=1;outlineConnect=0;fontSize=14;fillColor=#d5e8d4;strokeColor=#82b366;" vertex="1" parent="1">
          <mxGeometry x="150" y="200" width="30" height="60" as="geometry" />
        </mxCell>
        <mxCell id="8_nAU7fzenCUrAZ5edRp-10" value="" style="shape=umlActor;verticalLabelPosition=bottom;verticalAlign=top;html=1;outlineConnect=0;fontSize=14;fillColor=#d5e8d4;strokeColor=#82b366;" vertex="1" parent="1">
          <mxGeometry x="190" y="200" width="30" height="60" as="geometry" />
        </mxCell>
        <mxCell id="8_nAU7fzenCUrAZ5edRp-11" value="" style="shape=umlActor;verticalLabelPosition=bottom;verticalAlign=top;html=1;outlineConnect=0;fontSize=14;fillColor=#d5e8d4;strokeColor=#82b366;" vertex="1" parent="1">
          <mxGeometry x="230" y="200" width="30" height="60" as="geometry" />
        </mxCell>
        <mxCell id="8_nAU7fzenCUrAZ5edRp-12" value="" style="shape=umlActor;verticalLabelPosition=bottom;verticalAlign=top;html=1;outlineConnect=0;fontSize=14;fillColor=#d5e8d4;strokeColor=#82b366;" vertex="1" parent="1">
          <mxGeometry x="150" y="260" width="30" height="60" as="geometry" />
        </mxCell>
        <mxCell id="8_nAU7fzenCUrAZ5edRp-13" value="" style="shape=umlActor;verticalLabelPosition=bottom;verticalAlign=top;html=1;outlineConnect=0;fontSize=14;fillColor=#d5e8d4;strokeColor=#82b366;" vertex="1" parent="1">
          <mxGeometry x="190" y="260" width="30" height="60" as="geometry" />
        </mxCell>
        <mxCell id="8_nAU7fzenCUrAZ5edRp-14" value="" style="shape=umlActor;verticalLabelPosition=bottom;verticalAlign=top;html=1;outlineConnect=0;fontSize=14;fillColor=#d5e8d4;strokeColor=#82b366;" vertex="1" parent="1">
          <mxGeometry x="230" y="260" width="30" height="60" as="geometry" />
        </mxCell>
        <mxCell id="8_nAU7fzenCUrAZ5edRp-15" value="" style="shape=umlActor;verticalLabelPosition=bottom;verticalAlign=top;html=1;outlineConnect=0;fontSize=14;fillColor=#d5e8d4;strokeColor=#82b366;" vertex="1" parent="1">
          <mxGeometry x="150" y="320" width="30" height="60" as="geometry" />
        </mxCell>
        <mxCell id="8_nAU7fzenCUrAZ5edRp-16" value="" style="shape=umlActor;verticalLabelPosition=bottom;verticalAlign=top;html=1;outlineConnect=0;fontSize=14;fillColor=#d5e8d4;strokeColor=#82b366;" vertex="1" parent="1">
          <mxGeometry x="190" y="320" width="30" height="60" as="geometry" />
        </mxCell>
        <mxCell id="8_nAU7fzenCUrAZ5edRp-17" value="" style="shape=umlActor;verticalLabelPosition=bottom;verticalAlign=top;html=1;outlineConnect=0;fontSize=14;fillColor=#d5e8d4;strokeColor=#82b366;" vertex="1" parent="1">
          <mxGeometry x="230" y="320" width="30" height="60" as="geometry" />
        </mxCell>
        <mxCell id="8_nAU7fzenCUrAZ5edRp-18" value="" style="shape=umlActor;verticalLabelPosition=bottom;verticalAlign=top;html=1;outlineConnect=0;fontSize=14;fillColor=#d5e8d4;strokeColor=#82b366;" vertex="1" parent="1">
          <mxGeometry x="270" y="200" width="30" height="60" as="geometry" />
        </mxCell>
        <mxCell id="8_nAU7fzenCUrAZ5edRp-19" value="" style="shape=umlActor;verticalLabelPosition=bottom;verticalAlign=top;html=1;outlineConnect=0;fontSize=14;fillColor=#d5e8d4;strokeColor=#82b366;" vertex="1" parent="1">
          <mxGeometry x="270" y="260" width="30" height="60" as="geometry" />
        </mxCell>
        <mxCell id="8_nAU7fzenCUrAZ5edRp-20" value="" style="shape=umlActor;verticalLabelPosition=bottom;verticalAlign=top;html=1;outlineConnect=0;fontSize=14;fillColor=#d5e8d4;strokeColor=#82b366;" vertex="1" parent="1">
          <mxGeometry x="270" y="320" width="30" height="60" as="geometry" />
        </mxCell>
        <mxCell id="8_nAU7fzenCUrAZ5edRp-21" value="miners" style="text;html=1;strokeColor=none;fillColor=none;align=center;verticalAlign=middle;whiteSpace=wrap;rounded=0;fontSize=14;" vertex="1" parent="1">
          <mxGeometry x="200" y="380" width="60" height="30" as="geometry" />
        </mxCell>
        <mxCell id="8_nAU7fzenCUrAZ5edRp-22" value="&lt;font style=&quot;font-size: 29px;&quot;&gt;.....&lt;/font&gt;" style="text;html=1;strokeColor=none;fillColor=none;align=center;verticalAlign=middle;whiteSpace=wrap;rounded=0;fontSize=14;" vertex="1" parent="1">
          <mxGeometry x="30" y="310" width="60" height="30" as="geometry" />
        </mxCell>
        <mxCell id="8_nAU7fzenCUrAZ5edRp-23" value="" style="endArrow=classic;html=1;rounded=0;fontSize=29;strokeWidth=1.5;" edge="1" parent="1" source="8_nAU7fzenCUrAZ5edRp-3" target="8_nAU7fzenCUrAZ5edRp-4">
          <mxGeometry width="50" height="50" relative="1" as="geometry">
            <mxPoint x="-240" y="380" as="sourcePoint" />
            <mxPoint x="-190" y="330" as="targetPoint" />
          </mxGeometry>
        </mxCell>
        <mxCell id="8_nAU7fzenCUrAZ5edRp-24" value="" style="endArrow=classic;html=1;rounded=0;fontSize=29;strokeWidth=1.5;" edge="1" parent="1" source="8_nAU7fzenCUrAZ5edRp-4" target="8_nAU7fzenCUrAZ5edRp-7">
          <mxGeometry width="50" height="50" relative="1" as="geometry">
            <mxPoint x="-250" y="372.5" as="sourcePoint" />
            <mxPoint x="-160" y="327.5" as="targetPoint" />
          </mxGeometry>
        </mxCell>
        <mxCell id="8_nAU7fzenCUrAZ5edRp-25" value="" style="endArrow=classic;html=1;rounded=0;fontSize=29;strokeWidth=1.5;" edge="1" parent="1" target="8_nAU7fzenCUrAZ5edRp-8">
          <mxGeometry width="50" height="50" relative="1" as="geometry">
            <mxPoint x="-140" y="300" as="sourcePoint" />
            <mxPoint x="-40" y="245.625" as="targetPoint" />
          </mxGeometry>
        </mxCell>
        <mxCell id="8_nAU7fzenCUrAZ5edRp-26" value="" style="endArrow=classic;html=1;rounded=0;fontSize=29;strokeWidth=1.5;exitX=1;exitY=0.3333333333333333;exitDx=0;exitDy=0;exitPerimeter=0;" edge="1" parent="1" source="8_nAU7fzenCUrAZ5edRp-4" target="8_nAU7fzenCUrAZ5edRp-6">
          <mxGeometry width="50" height="50" relative="1" as="geometry">
            <mxPoint x="-130" y="310" as="sourcePoint" />
            <mxPoint x="-40" y="327.1428571428571" as="targetPoint" />
          </mxGeometry>
        </mxCell>
        <mxCell id="8_nAU7fzenCUrAZ5edRp-27" value="" style="endArrow=classic;html=1;rounded=0;fontSize=29;strokeWidth=1.5;" edge="1" parent="1" source="8_nAU7fzenCUrAZ5edRp-8" target="8_nAU7fzenCUrAZ5edRp-12">
          <mxGeometry width="50" height="50" relative="1" as="geometry">
            <mxPoint x="-130" y="310" as="sourcePoint" />
            <mxPoint x="-40" y="327.1428571428571" as="targetPoint" />
          </mxGeometry>
        </mxCell>
        <mxCell id="8_nAU7fzenCUrAZ5edRp-28" value="PoW" style="text;html=1;strokeColor=none;fillColor=none;align=center;verticalAlign=middle;whiteSpace=wrap;rounded=0;fontSize=29;" vertex="1" parent="1">
          <mxGeometry y="130" width="60" height="30" as="geometry" />
        </mxCell>
        <mxCell id="8_nAU7fzenCUrAZ5edRp-29" value="pBFT" style="text;html=1;strokeColor=none;fillColor=none;align=center;verticalAlign=middle;whiteSpace=wrap;rounded=0;fontSize=29;" vertex="1" parent="1">
          <mxGeometry x="765" y="130" width="60" height="30" as="geometry" />
        </mxCell>
        <mxCell id="8_nAU7fzenCUrAZ5edRp-30" value="&lt;font style=&quot;font-size: 18px;&quot;&gt;Confirm six times&lt;/font&gt;" style="text;html=1;strokeColor=none;fillColor=none;align=center;verticalAlign=middle;whiteSpace=wrap;rounded=0;fontSize=29;" vertex="1" parent="1">
          <mxGeometry x="-75" y="500" width="210" height="30" as="geometry" />
        </mxCell>
        <mxCell id="8_nAU7fzenCUrAZ5edRp-49" value="" style="edgeStyle=orthogonalEdgeStyle;rounded=0;orthogonalLoop=1;jettySize=auto;html=1;strokeWidth=1.5;fontSize=18;startArrow=classic;startFill=1;" edge="1" parent="1" source="8_nAU7fzenCUrAZ5edRp-31" target="8_nAU7fzenCUrAZ5edRp-36">
          <mxGeometry relative="1" as="geometry" />
        </mxCell>
        <mxCell id="8_nAU7fzenCUrAZ5edRp-31" value="&lt;font style=&quot;font-size: 14px;&quot;&gt;main node&lt;/font&gt;" style="shape=umlActor;verticalLabelPosition=bottom;verticalAlign=top;html=1;outlineConnect=0;fontSize=18;fillColor=#f8cecc;strokeColor=#b85450;" vertex="1" parent="1">
          <mxGeometry x="780" y="250" width="30" height="60" as="geometry" />
        </mxCell>
        <mxCell id="8_nAU7fzenCUrAZ5edRp-32" value="node" style="shape=umlActor;verticalLabelPosition=bottom;verticalAlign=top;html=1;outlineConnect=0;fontSize=14;fillColor=#d5e8d4;strokeColor=#82b366;" vertex="1" parent="1">
          <mxGeometry x="630" y="250" width="30" height="60" as="geometry" />
        </mxCell>
        <mxCell id="8_nAU7fzenCUrAZ5edRp-33" value="node" style="shape=umlActor;verticalLabelPosition=bottom;verticalAlign=top;html=1;outlineConnect=0;fontSize=14;fillColor=#d5e8d4;strokeColor=#82b366;" vertex="1" parent="1">
          <mxGeometry x="920" y="250" width="30" height="60" as="geometry" />
        </mxCell>
        <mxCell id="8_nAU7fzenCUrAZ5edRp-35" value="node" style="shape=umlActor;verticalLabelPosition=bottom;verticalAlign=top;html=1;outlineConnect=0;fontSize=14;fillColor=#d5e8d4;strokeColor=#82b366;" vertex="1" parent="1">
          <mxGeometry x="680" y="360" width="30" height="60" as="geometry" />
        </mxCell>
        <mxCell id="8_nAU7fzenCUrAZ5edRp-36" value="node" style="shape=umlActor;verticalLabelPosition=bottom;verticalAlign=top;html=1;outlineConnect=0;fontSize=14;fillColor=#d5e8d4;strokeColor=#82b366;" vertex="1" parent="1">
          <mxGeometry x="780" y="420" width="30" height="60" as="geometry" />
        </mxCell>
        <mxCell id="8_nAU7fzenCUrAZ5edRp-37" value="node" style="shape=umlActor;verticalLabelPosition=bottom;verticalAlign=top;html=1;outlineConnect=0;fontSize=14;fillColor=#d5e8d4;strokeColor=#82b366;" vertex="1" parent="1">
          <mxGeometry x="880" y="370" width="30" height="60" as="geometry" />
        </mxCell>
        <mxCell id="8_nAU7fzenCUrAZ5edRp-38" value="node" style="shape=umlActor;verticalLabelPosition=bottom;verticalAlign=top;html=1;outlineConnect=0;fontSize=14;fillColor=#d5e8d4;strokeColor=#82b366;" vertex="1" parent="1">
          <mxGeometry x="700" y="170" width="30" height="60" as="geometry" />
        </mxCell>
        <mxCell id="8_nAU7fzenCUrAZ5edRp-39" value="node" style="shape=umlActor;verticalLabelPosition=bottom;verticalAlign=top;html=1;outlineConnect=0;fontSize=14;fillColor=#d5e8d4;strokeColor=#82b366;" vertex="1" parent="1">
          <mxGeometry x="850" y="170" width="30" height="60" as="geometry" />
        </mxCell>
        <mxCell id="8_nAU7fzenCUrAZ5edRp-40" value="" style="endArrow=classic;html=1;rounded=0;strokeWidth=1.5;fontSize=18;startArrow=classic;startFill=1;" edge="1" parent="1" source="8_nAU7fzenCUrAZ5edRp-31" target="8_nAU7fzenCUrAZ5edRp-32">
          <mxGeometry width="50" height="50" relative="1" as="geometry">
            <mxPoint x="620" y="440" as="sourcePoint" />
            <mxPoint x="670" y="390" as="targetPoint" />
          </mxGeometry>
        </mxCell>
        <mxCell id="8_nAU7fzenCUrAZ5edRp-41" value="" style="endArrow=classic;html=1;rounded=0;strokeWidth=1.5;fontSize=18;startArrow=classic;startFill=1;" edge="1" parent="1" source="8_nAU7fzenCUrAZ5edRp-31" target="8_nAU7fzenCUrAZ5edRp-35">
          <mxGeometry width="50" height="50" relative="1" as="geometry">
            <mxPoint x="780" y="280" as="sourcePoint" />
            <mxPoint x="670" y="290" as="targetPoint" />
          </mxGeometry>
        </mxCell>
        <mxCell id="8_nAU7fzenCUrAZ5edRp-44" value="" style="endArrow=classic;html=1;rounded=0;strokeWidth=1.5;fontSize=18;startArrow=classic;startFill=1;" edge="1" parent="1" source="8_nAU7fzenCUrAZ5edRp-31" target="8_nAU7fzenCUrAZ5edRp-33">
          <mxGeometry width="50" height="50" relative="1" as="geometry">
            <mxPoint x="820" y="280" as="sourcePoint" />
            <mxPoint x="804.5" y="420" as="targetPoint" />
          </mxGeometry>
        </mxCell>
        <mxCell id="8_nAU7fzenCUrAZ5edRp-45" value="" style="endArrow=classic;html=1;rounded=0;strokeWidth=1.5;fontSize=18;startArrow=classic;startFill=1;" edge="1" parent="1" source="8_nAU7fzenCUrAZ5edRp-31">
          <mxGeometry width="50" height="50" relative="1" as="geometry">
            <mxPoint x="820" y="280" as="sourcePoint" />
            <mxPoint x="880" y="380" as="targetPoint" />
          </mxGeometry>
        </mxCell>
        <mxCell id="8_nAU7fzenCUrAZ5edRp-46" value="" style="endArrow=classic;html=1;rounded=0;strokeWidth=1.5;fontSize=18;exitX=0;exitY=0.3333333333333333;exitDx=0;exitDy=0;exitPerimeter=0;startArrow=classic;startFill=1;" edge="1" parent="1" source="8_nAU7fzenCUrAZ5edRp-31" target="8_nAU7fzenCUrAZ5edRp-38">
          <mxGeometry width="50" height="50" relative="1" as="geometry">
            <mxPoint x="780" y="280" as="sourcePoint" />
            <mxPoint x="670" y="290" as="targetPoint" />
          </mxGeometry>
        </mxCell>
        <mxCell id="8_nAU7fzenCUrAZ5edRp-47" value="" style="endArrow=classic;html=1;rounded=0;strokeWidth=1.5;fontSize=18;exitX=1;exitY=0.3333333333333333;exitDx=0;exitDy=0;exitPerimeter=0;startArrow=classic;startFill=1;" edge="1" parent="1" source="8_nAU7fzenCUrAZ5edRp-31" target="8_nAU7fzenCUrAZ5edRp-39">
          <mxGeometry width="50" height="50" relative="1" as="geometry">
            <mxPoint x="820" y="290" as="sourcePoint" />
            <mxPoint x="930" y="290" as="targetPoint" />
          </mxGeometry>
        </mxCell>
        <mxCell id="8_nAU7fzenCUrAZ5edRp-51" value="&lt;font color=&quot;#ff6666&quot;&gt;request and confirm&lt;/font&gt;" style="text;html=1;strokeColor=none;fillColor=none;align=center;verticalAlign=middle;whiteSpace=wrap;rounded=0;fontSize=14;" vertex="1" parent="1">
          <mxGeometry x="630" y="480" width="130" height="10" as="geometry" />
        </mxCell>
      </root>
    </mxGraphModel>
  </diagram>
</mxfile>
